<svg version="1.1" id="Layer_1" xmlns="http://www.w3.org/2000/svg" xmlns:xlink="http://www.w3.org/1999/xlink" x="0px" y="0px"
	 width="100%" viewBox="0 0 1024 1024" enable-background="new 0 0 1024 1024" xml:space="preserve">
<path fill="#000000" opacity="1.000000" stroke="none" 
	d="
M747.392822,533.327820 
	C714.239075,588.053528 666.149780,620.719910 604.039185,633.280884 
	C580.811768,637.978333 557.297058,637.126160 533.823547,637.200867 
	C529.990356,637.213074 526.157043,637.215027 522.323914,637.234741 
	C515.120239,637.271729 515.099304,637.275696 515.106201,644.313477 
	C515.133179,671.979004 515.179871,699.644531 515.208679,727.310059 
	C515.230225,747.975891 515.130676,768.642822 515.330200,789.306824 
	C515.373962,793.831482 514.007080,795.374084 509.363098,795.367798 
	C427.199158,795.256775 345.035034,795.262207 262.871094,795.374573 
	C258.266876,795.380859 256.788666,793.857849 256.798645,789.313416 
	C256.922241,733.152344 256.549805,676.987549 257.084198,620.831177 
	C257.310608,597.038147 257.510406,573.220642 257.305267,549.452881 
	C256.940063,507.129974 257.126892,464.808685 256.954346,422.488403 
	C256.670319,352.830017 256.864532,283.169678 256.861542,213.510162 
	C256.861176,205.034241 256.873810,204.964188 265.473358,204.963531 
	C361.469849,204.956207 457.468781,204.561935 553.461975,205.130936 
	C614.092285,205.490311 666.138184,228.253006 709.464661,270.276855 
	C745.139221,304.878815 767.055176,347.078461 774.101501,396.434937 
	C781.021240,444.904846 772.166931,490.541382 747.392822,533.327820 
M279.181732,720.500000 
	C279.176788,735.496582 279.179749,750.493164 279.163727,765.489746 
	C279.154877,773.757080 279.140472,773.745667 287.246948,773.744507 
	C353.569885,773.734863 419.892792,773.728638 486.215729,773.725159 
	C493.687408,773.724792 493.700256,773.735535 493.701630,766.018982 
	C493.709045,724.025391 493.709320,682.031799 493.712799,640.038208 
	C493.713348,633.372559 493.769806,626.706299 493.694733,620.041565 
	C493.663574,617.274963 494.417023,615.668579 497.597168,615.653381 
	C517.918396,615.556580 538.242249,615.076599 558.558716,615.305298 
	C569.919067,615.433105 581.245361,615.155518 592.400269,613.356323 
	C639.536560,605.753601 679.548645,584.838684 710.283386,547.873230 
	C744.944214,506.185608 759.416687,457.914551 753.325806,404.161407 
	C748.825378,364.444122 733.055176,329.008942 706.616516,298.880341 
	C666.454163,253.112579 616.315247,227.457275 554.760010,227.194122 
	C465.775604,226.813705 376.788208,227.140717 287.802094,227.147079 
	C279.226288,227.147690 279.193542,227.086166 279.192535,235.586166 
	C279.185364,295.242523 279.196259,354.898895 279.194824,414.555237 
	C279.192383,516.203491 279.185120,617.851685 279.181732,720.500000 
z"/>
<path fill="#000000" opacity="1.000000" stroke="none" 
	d="
M732.179443,438.843140 
	C729.508484,463.256897 722.917297,486.039978 710.685913,506.860229 
	C682.479858,554.872620 640.864502,583.538574 585.768677,592.516968 
	C568.690308,595.300049 551.517700,593.986755 534.381348,594.235962 
	C522.551819,594.408020 510.716583,594.161926 498.885864,594.287170 
	C495.084534,594.327332 493.314728,593.033936 493.582672,589.067627 
	C493.784332,586.082397 493.832336,583.047974 493.536011,580.076599 
	C493.061798,575.322205 494.838562,573.681946 499.702759,573.745605 
	C518.031250,573.985535 536.372314,573.515808 554.694214,573.939148 
	C578.004883,574.477600 600.448608,571.084412 621.926208,561.697266 
	C633.629028,556.582397 633.725647,556.787231 633.709778,543.905579 
	C633.695557,532.406616 633.553589,520.906189 633.707581,509.409607 
	C633.752686,506.045074 632.558838,503.793610 630.009277,501.759552 
	C622.065857,495.422180 614.326233,488.827820 606.334351,482.553711 
	C603.187927,480.083527 601.043091,477.348206 601.829285,473.270477 
	C604.025940,461.876648 599.833069,454.667664 588.515015,451.376648 
	C580.866028,449.152557 577.819763,443.798157 578.959595,435.752319 
	C579.514954,431.831940 578.890564,427.758942 579.093384,423.769928 
	C579.279785,420.105591 577.625488,418.381104 574.214966,417.436005 
	C564.431641,414.724945 554.711121,411.787109 544.963562,408.946686 
	C538.939697,407.191345 537.400146,408.280304 537.388123,414.566071 
	C537.331299,444.229736 537.324280,473.893524 537.288635,503.557251 
	C537.280701,510.141327 537.260376,510.141266 530.608704,510.182648 
	C517.604919,510.263550 517.631714,510.263428 517.556274,497.153046 
	C517.423096,474.019958 517.280334,450.886902 517.090027,427.754242 
	C516.970825,413.267944 518.149170,398.787994 517.274841,384.299042 
	C517.204529,383.132874 517.154297,381.960083 518.030396,380.775940 
	C519.894836,379.823059 521.745667,380.832489 523.603394,381.339233 
	C531.793884,383.573395 539.996277,385.768951 548.147217,388.140625 
	C551.456177,389.103394 552.950989,388.196289 552.731567,384.712250 
	C552.721130,384.546509 552.733765,384.379028 552.740479,384.212555 
	C553.445129,366.755402 553.416809,366.791504 539.735901,356.069061 
	C529.246887,347.848297 518.845276,339.516235 508.391907,331.249908 
	C507.233154,330.333557 506.147125,329.225311 504.367035,329.169647 
	C502.380432,330.821198 503.314117,333.149963 503.311951,335.142517 
	C503.251343,391.137024 503.261139,447.131592 503.253815,503.126160 
	C503.252869,510.282776 503.238739,510.282806 496.013306,510.263184 
	C483.602661,510.229492 483.588470,510.229462 483.587585,497.743042 
	C483.584778,458.098907 483.646698,418.454712 483.574677,378.810699 
	C483.540222,359.839905 483.278473,340.869354 483.080780,321.899109 
	C483.020325,316.098785 481.587341,315.123322 476.538422,317.861420 
	C464.239014,324.531494 451.996948,331.311066 439.827148,338.214661 
	C434.521271,341.224548 434.622040,352.978119 439.932007,355.876709 
	C446.948425,359.706848 454.021729,363.450378 461.215240,366.932281 
	C465.801758,369.152344 467.477478,372.192902 467.469360,377.472015 
	C467.312408,479.295868 467.368835,581.120056 467.383453,682.944153 
	C467.386658,705.275452 467.406708,727.606750 467.388550,749.938049 
	C467.387207,751.562073 467.826813,753.268738 466.536072,755.303040 
	C461.390533,755.303040 455.940979,755.402527 450.497375,755.265686 
	C447.240601,755.183777 447.701721,752.507996 447.692535,750.429321 
	C447.639618,738.430664 447.645691,726.431702 447.644348,714.432800 
	C447.633026,611.108765 447.628967,507.784760 447.602112,404.460724 
	C447.600677,398.965302 447.304535,393.468994 447.351929,387.974884 
	C447.381622,384.532776 446.009918,382.384064 442.820953,381.037140 
	C439.913971,379.809296 436.949829,378.489288 434.415222,376.652039 
	C427.996429,371.999359 422.273376,372.763275 415.930725,377.193939 
	C408.572235,382.334259 400.669434,386.708527 392.902710,391.243744 
	C390.301422,392.762726 389.188202,394.599213 389.212585,397.657745 
	C389.325592,411.822113 389.204224,425.988129 389.254517,440.153229 
	C389.271881,445.038879 390.184174,445.613464 394.525818,443.536591 
	C402.188049,439.871246 409.815338,436.130493 417.409943,432.326813 
	C423.414764,429.319397 424.172211,429.717194 424.171631,436.359467 
	C424.165100,508.852142 424.140411,581.344849 424.149963,653.837524 
	C424.154175,685.667725 424.232300,717.497986 424.260498,749.328186 
	C424.265961,755.486206 423.866821,756.196228 417.842834,755.827209 
	C401.100861,754.801636 403.960022,757.980591 403.940887,742.031189 
	C403.832092,651.207031 403.863373,560.382690 403.820312,469.558441 
	C403.819397,467.630768 404.307129,465.553131 402.808044,463.793976 
	C400.429901,463.305176 398.665680,464.798889 396.794281,465.717499 
	C382.293304,472.835480 367.887085,480.149933 353.309265,487.105530 
	C349.156494,489.086975 347.420044,491.308136 347.756409,496.229950 
	C348.380066,505.355560 347.976624,514.549316 348.086670,523.713745 
	C348.111877,525.814575 347.652985,528.059692 349.698883,530.727173 
	C357.906372,524.769348 366.111969,518.812927 374.136475,512.987976 
	C376.779297,514.383423 376.146515,516.427612 376.147583,518.125427 
	C376.196411,595.449707 376.180817,672.774109 376.295044,750.098206 
	C376.300964,754.107971 375.149597,755.601440 371.027802,755.845337 
	C355.834412,756.744507 355.870422,756.879028 355.880066,741.752014 
	C355.918732,681.091675 355.943726,620.431335 355.940796,559.770996 
	C355.940674,557.842407 356.472809,555.770996 355.060150,553.957214 
	C352.765198,553.592224 351.345428,555.274353 349.828217,556.382751 
	C342.564728,561.689392 335.462921,567.218140 328.176575,572.492310 
	C325.795898,574.215576 325.398071,576.376465 325.400024,578.994751 
	C325.434723,624.990417 325.409393,670.986084 325.464233,716.981689 
	C325.477325,727.962036 325.622131,738.945251 325.935028,749.920715 
	C326.055328,754.140137 324.592773,755.830872 320.238281,755.973145 
	C305.568176,756.452698 305.611572,756.579102 305.616486,742.151855 
	C305.635986,684.823730 305.678894,627.495544 305.537292,570.167786 
	C305.525848,565.539429 306.565552,562.066895 310.630524,559.722351 
	C311.200958,559.393372 311.617706,558.777710 312.202637,558.497070 
	C325.044434,552.334961 328.232361,542.087280 327.117615,528.391724 
	C325.891418,513.326599 326.951447,498.082855 326.781982,482.919556 
	C326.736664,478.861725 328.203156,476.561432 331.869141,474.826447 
	C342.407318,469.839050 352.744385,464.427795 363.260132,459.391144 
	C366.833862,457.679443 368.635468,455.361206 368.599426,451.310974 
	C368.406616,429.664337 368.410400,408.015656 368.130768,386.370422 
	C368.089783,383.197937 369.266449,381.490265 371.781738,379.981995 
	C384.212128,372.528137 396.480560,364.797760 409.028656,357.550140 
	C413.685577,354.860321 416.403351,351.964325 415.702423,346.185425 
	C415.164764,341.752625 415.875214,337.181152 415.553467,332.705658 
	C415.271606,328.785217 416.905853,326.691986 420.220642,324.876678 
	C441.403564,313.275726 462.511383,301.536926 483.586273,289.740479 
	C486.014618,288.381256 487.781281,288.580627 489.895782,290.262726 
	C516.623840,311.524506 543.383606,332.746399 570.180115,353.921783 
	C572.497925,355.753418 573.354797,357.888031 573.391357,360.791168 
	C573.515015,370.616486 574.031128,380.439545 574.012512,390.262726 
	C574.005066,394.170502 575.480103,395.910248 579.141846,396.792297 
	C584.313477,398.038025 589.344788,399.857086 594.497986,401.192291 
	C597.871216,402.066345 599.514526,403.674133 599.427307,407.431000 
	C599.261292,414.581116 599.618225,421.741760 599.612244,428.897919 
	C599.609558,432.056915 600.635437,434.273651 603.646606,435.654907 
	C608.640869,437.945892 613.490967,440.550659 618.481995,442.849335 
	C621.254150,444.126099 622.491577,445.975403 622.362122,449.078705 
	C622.188599,453.236816 622.710693,457.445648 622.287903,461.566406 
	C621.728210,467.021637 623.835449,470.551514 628.178711,473.729767 
	C635.835632,479.332825 643.010376,485.590302 650.560059,491.346832 
	C653.225891,493.379425 654.327942,495.619324 654.294983,498.940186 
	C654.177673,510.771057 654.262817,522.604248 654.327393,534.436218 
	C654.337158,536.219788 653.865906,538.096069 654.956726,539.859619 
	C657.136414,540.492554 658.322205,538.804260 659.595642,537.666687 
	C690.339966,510.200378 709.411377,476.515778 711.757507,434.909363 
	C715.553040,367.600189 686.476807,317.916321 628.074890,285.477905 
	C607.022949,273.784912 583.776489,268.292786 559.465332,268.312256 
	C536.300720,268.330780 513.135071,268.202545 489.972382,268.414185 
	C485.071167,268.458954 483.411163,266.802490 483.868103,262.047638 
	C484.201233,258.581543 483.937805,255.054550 483.880585,251.555710 
	C483.840607,249.113190 484.888702,247.712219 487.410553,247.785141 
	C520.836609,248.751526 554.468201,244.733536 587.674072,250.618225 
	C636.188232,259.215759 674.243774,284.586151 702.427002,324.808838 
	C720.744751,350.951630 730.109192,380.215149 732.540527,411.967346 
	C733.220825,420.851746 732.511780,429.583527 732.179443,438.843140 
z"/>
</svg>